<svg width="40" height="35" viewBox="0 0 40 35" fill="none" xmlns="http://www.w3.org/2000/svg">
<mask id="path-1-inside-1_24_476" fill="white">
<path d="M0 0L20 15.9091L40 0"/>
</mask>
<path d="M1.86757 -2.3478L-0.480232 -4.21537L-4.21537 0.480232L-1.86757 2.3478L1.86757 -2.3478ZM20 15.9091L18.1324 18.2569C19.2256 19.1265 20.7744 19.1265 21.8676 18.2569L20 15.9091ZM41.8676 2.3478L44.2154 0.480232L40.4802 -4.21537L38.1324 -2.3478L41.8676 2.3478ZM-1.86757 2.3478L18.1324 18.2569L21.8676 13.5613L1.86757 -2.3478L-1.86757 2.3478ZM21.8676 18.2569L41.8676 2.3478L38.1324 -2.3478L18.1324 13.5613L21.8676 18.2569Z" fill="#F2F2F2" mask="url(#path-1-inside-1_24_476)"/>
<mask id="path-3-inside-2_24_476" fill="white">
<path d="M0 19.0909L20 35L40 19.0909"/>
</mask>
<path d="M1.86757 16.7431L-0.480232 14.8755L-4.21537 19.5711L-1.86757 21.4387L1.86757 16.7431ZM20 35L18.1324 37.3478C19.2256 38.2174 20.7744 38.2174 21.8676 37.3478L20 35ZM41.8676 21.4387L44.2154 19.5711L40.4802 14.8755L38.1324 16.7431L41.8676 21.4387ZM-1.86757 21.4387L18.1324 37.3478L21.8676 32.6522L1.86757 16.7431L-1.86757 21.4387ZM21.8676 37.3478L41.8676 21.4387L38.1324 16.7431L18.1324 32.6522L21.8676 37.3478Z" fill="#F2F2F2" mask="url(#path-3-inside-2_24_476)"/>
</svg>
