<svg width="109" height="30" viewBox="0 0 109 30" fill="none" xmlns="http://www.w3.org/2000/svg">
<path d="M14.28 15.16V19.48H0.84V15.16H14.28ZM38.6928 0.999998H44.2928V29H38.6928V18.6C37.1728 19.28 35.4928 19.64 33.7328 19.64C26.9328 19.64 21.3328 14 21.3328 7.24V0.999998H26.9328V7.24C26.9328 10.96 30.0528 14.04 33.7328 14.04C35.6128 14.04 37.3728 13.28 38.6928 11.84V0.999998ZM70.3078 29.84C67.2678 29.84 64.3078 27.92 63.7878 24.16L61.4678 6.84C61.3478 5.96 60.7078 5.56 60.0678 5.56C59.3878 5.56 58.7478 5.96 58.6278 6.84L55.7478 29H50.0678L53.0678 6.12C53.6278 2.04 56.8278 -9.53674e-07 60.0678 -9.53674e-07C63.3078 -9.53674e-07 66.5078 2.04 67.0278 6.08L69.3478 23.4C69.4278 23.96 69.8678 24.28 70.3078 24.28C70.7478 24.28 71.1878 23.96 71.2278 23.4L73.5478 6.12C74.0678 2.04 77.3078 -9.53674e-07 80.5478 -9.53674e-07C83.7478 -9.53674e-07 86.9478 2.04 87.5078 6.12L90.5078 29H84.8278L81.9478 6.84C81.8278 5.96 81.1878 5.56 80.5478 5.56C79.8678 5.56 79.2278 5.96 79.1078 6.84L76.8278 24.12C76.2678 27.92 73.3078 29.84 70.3078 29.84ZM108.772 15.16V19.48H95.3322V15.16H108.772Z" fill="#F2F2F2"/>
</svg>
